<svg width="64" height="64" viewBox="0 0 64 64" fill="none" xmlns="http://www.w3.org/2000/svg">
  <defs>
    <linearGradient id="capGradient" x1="32" y1="12" x2="32" y2="52" gradientUnits="userSpaceOnUse">
      <stop offset="0%" stop-color="#6366f1" /> <stop offset="100%" stop-color="#4f46e5" /> </linearGradient>
    <linearGradient id="bellGradient" x1="48" y1="12" x2="48" y2="36" gradientUnits="userSpaceOnUse">
      <stop offset="0%" stop-color="#fb7185" /> <stop offset="100%" stop-color="#e11d48" /> </linearGradient>
    <filter id="shadow" x="-4" y="-4" width="72" height="72" filterUnits="userSpaceOnUse">
      <feDropShadow dx="0" dy="2" stdDeviation="2" flood-color="#000" flood-opacity="0.15"/>
    </filter>
  </defs>

  <path d="M32 12L8 24L32 36L56 24L32 12Z" fill="url(#capGradient)" filter="url(#shadow)"/>
  
  <path d="M52 26V34C52 38 46 44 32 44C18 44 12 38 12 34V26L32 36L52 26Z" fill="#4338ca"/> <path d="M32 24L26 27" stroke="#10b981" stroke-width="2" stroke-linecap="round"/>
  <circle cx="26" cy="27" r="2.5" fill="#10b981" /> <path d="M26 27V36" stroke="#10b981" stroke-width="2" stroke-linecap="round"/>

  <g filter="url(#shadow)">
    <circle cx="48" cy="18" r="10" fill="#ffffff"/> 
    <circle cx="48" cy="18" r="8" fill="url(#bellGradient)"/>
    
    <path d="M48 13C46.8954 13 46 13.8954 46 15V17.5C46 18.5 45.5 19.5 45 20H51C50.5 19.5 50 18.5 50 17.5V15C50 13.8954 49.1046 13 48 13Z" fill="white"/>
    <path d="M46.5 21C46.5 21.8284 47.1716 22.5 48 22.5C48.8284 22.5 49.5 21.8284 49.5 21" stroke="white" stroke-width="1.5" stroke-linecap="round"/>
  </g>
</svg>